<svg width="960" height="112" viewBox="0 0 960 112" fill="none" xmlns="http://www.w3.org/2000/svg">
<path d="M-10 129.008L92 69.4818C166 54.6003 213.3 23.0303 320 16.5462C426.7 9.95583 533.3 0.389157 640 0.920638C746.7 1.45212 764.6 45.0336 818 50.3485L933.35 113.063H960H906.7C853.3 113.063 746.7 113.063 640 113.063C533.3 113.063 426.7 113.063 320 113.063C213.3 113.063 106.7 113.063 53.3 113.063H0L-10 129.008Z" fill="#F0EFFA"/>
<path d="M16 113.063L94 97.1183C147.4 97.8585 213.3 69.7225 320 66.8441C426.7 63.9657 533.3 56.8931 640 56.7287C746.7 56.5642 716.6 74.6134 770 77.9852L862 97.1183L960 113.063H906.7C853.3 113.063 746.7 113.063 640 113.063C533.3 113.063 426.7 113.063 320 113.063C213.3 113.063 106.7 113.063 53.3 113.063H0H16Z" fill="#D2D1E0"/>
</svg>
