<svg width="100%" height="100%" id="svg" viewBox="0 0 1440 400" xmlns="http://www.w3.org/2000/svg" class="transition duration-300 ease-in-out delay-150"><path d="M 0,400 C 0,400 0,133 0,133 C 95.60714285714286,117.89285714285714 191.21428571428572,102.78571428571428 322,120 C 452.7857142857143,137.21428571428572 618.75,186.75 754,179 C 889.25,171.25 993.7857142857144,106.21428571428571 1103,89 C 1212.2142857142856,71.78571428571429 1326.1071428571427,102.39285714285714 1440,133 C 1440,133 1440,400 1440,400 Z" stroke="none" stroke-width="0" fill="#abb8c388" class="transition-all duration-300 ease-in-out delay-150 path-0"></path><path d="M 0,400 C 0,400 0,266 0,266 C 108.53571428571428,283.17857142857144 217.07142857142856,300.35714285714283 333,291 C 448.92857142857144,281.64285714285717 572.25,245.75000000000003 715,228 C 857.75,210.24999999999997 1019.9285714285713,210.64285714285714 1144,220 C 1268.0714285714287,229.35714285714286 1354.0357142857142,247.67857142857144 1440,266 C 1440,266 1440,400 1440,400 Z" stroke="none" stroke-width="0" fill="#abb8c3ff" class="transition-all duration-300 ease-in-out delay-150 path-1"></path></svg>