<svg width="100%" height="100%" id="svg" viewBox="0 0 1440 600" xmlns="http://www.w3.org/2000/svg" class="transition duration-300 ease-in-out delay-150"><path d="M 0,600 C 0,600 0,120 0,120 C 70.33468335787923,103.32879234167893 140.66936671575846,86.65758468335788 197,100 C 253.33063328424154,113.34241531664212 295.6572164948454,156.69845360824743 359,156 C 422.3427835051546,155.30154639175257 506.70176730486014,110.54860088365244 569,111 C 631.2982326951399,111.45139911634756 671.5357142857143,157.10714285714286 730,158 C 788.4642857142857,158.89285714285714 865.1553755522829,115.02282768777613 916,112 C 966.8446244477171,108.97717231222387 991.8427835051546,146.80154639175257 1047,142 C 1102.1572164948454,137.19845360824743 1187.4734904270986,89.77098674521355 1258,79 C 1328.5265095729014,68.22901325478645 1384.2632547864507,94.11450662739323 1440,120 C 1440,120 1440,600 1440,600 Z" stroke="none" stroke-width="0" fill="#e4e4e444" class="transition-all duration-300 ease-in-out delay-150 path-0"></path><path d="M 0,600 C 0,600 0,240 0,240 C 69.10309278350516,220.00662739322536 138.20618556701032,200.0132547864507 200,199 C 261.7938144329897,197.9867452135493 316.2783505154639,215.95360824742266 377,236 C 437.7216494845361,256.04639175257734 504.680412371134,278.1723122238586 555,271 C 605.319587628866,263.8276877761414 639.0000000000001,227.3571428571429 700,210 C 760.9999999999999,192.6428571428571 849.319587628866,194.39911634756993 909,206 C 968.680412371134,217.60088365243007 999.7216494845359,239.04639175257734 1057,238 C 1114.2783505154641,236.95360824742266 1197.7938144329896,213.41531664212076 1266,210 C 1334.2061855670104,206.58468335787924 1387.1030927835052,223.29234167893964 1440,240 C 1440,240 1440,600 1440,600 Z" stroke="none" stroke-width="0" fill="#e4e4e466" class="transition-all duration-300 ease-in-out delay-150 path-1"></path><path d="M 0,600 C 0,600 0,360 0,360 C 60.6262886597938,359.91991899852724 121.2525773195876,359.8398379970545 179,347 C 236.7474226804124,334.1601620029455 291.6159793814433,308.5605670103093 342,324 C 392.3840206185567,339.4394329896907 438.2835051546392,395.9178939617084 508,404 C 577.7164948453608,412.0821060382916 671.25,371.76785714285717 744,361 C 816.75,350.23214285714283 868.7164948453608,369.01067746686306 924,368 C 979.2835051546392,366.98932253313694 1037.8840206185566,346.1894329896908 1096,345 C 1154.1159793814434,343.8105670103092 1211.7474226804125,362.2315905743741 1269,368 C 1326.2525773195875,373.7684094256259 1383.1262886597938,366.88420471281296 1440,360 C 1440,360 1440,600 1440,600 Z" stroke="none" stroke-width="0" fill="#e4e4e488" class="transition-all duration-300 ease-in-out delay-150 path-2"></path><path d="M 0,600 C 0,600 0,480 0,480 C 78.43980117820323,464.1029086892489 156.87960235640645,448.2058173784978 207,458 C 257.12039764359355,467.7941826215022 278.9213917525774,503.2796391752578 337,511 C 395.0786082474226,518.7203608247422 489.43483063328415,498.67562592047125 557,488 C 624.5651693667158,477.32437407952875 665.3392857142858,476.0178571428571 715,489 C 764.6607142857142,501.9821428571429 823.2080265095728,529.2529455081002 890,519 C 956.7919734904272,508.7470544918998 1031.8286082474226,460.9703608247423 1086,456 C 1140.1713917525774,451.0296391752577 1173.4775405007365,488.86561119293077 1229,500 C 1284.5224594992635,511.13438880706923 1362.2612297496316,495.5671944035346 1440,480 C 1440,480 1440,600 1440,600 Z" stroke="none" stroke-width="0" fill="#e4e4e4ff" class="transition-all duration-300 ease-in-out delay-150 path-3"></path></svg>