<svg width="42" height="90" viewBox="0 0 42 90" fill="none" xmlns="http://www.w3.org/2000/svg">
<path d="M42 77.7273V85.9091C42 87.017 41.5844 87.9758 40.7531 88.7855C39.9219 89.5952 38.9375 90 37.8 90H4.2C3.0625 90 2.07812 89.5952 1.24687 88.7855C0.415625 87.9758 0 87.017 0 85.9091V77.7273C0 76.6193 0.415625 75.6605 1.24687 74.8509C2.07812 74.0412 3.0625 73.6364 4.2 73.6364H8.4V49.0909H4.2C3.0625 49.0909 2.07812 48.6861 1.24687 47.8764C0.415625 47.0668 0 46.108 0 45V36.8182C0 35.7102 0.415625 34.7514 1.24687 33.9418C2.07812 33.1321 3.0625 32.7273 4.2 32.7273H29.4C30.5375 32.7273 31.5219 33.1321 32.3531 33.9418C33.1844 34.7514 33.6 35.7102 33.6 36.8182V73.6364H37.8C38.9375 73.6364 39.9219 74.0412 40.7531 74.8509C41.5844 75.6605 42 76.6193 42 77.7273ZM33.6 4.09091V16.3636C33.6 17.4716 33.1844 18.4304 32.3531 19.2401C31.5219 20.0497 30.5375 20.4545 29.4 20.4545H12.6C11.4625 20.4545 10.4781 20.0497 9.64687 19.2401C8.81562 18.4304 8.4 17.4716 8.4 16.3636V4.09091C8.4 2.98295 8.81562 2.02415 9.64687 1.21449C10.4781 0.40483 11.4625 0 12.6 0H29.4C30.5375 0 31.5219 0.40483 32.3531 1.21449C33.1844 2.02415 33.6 2.98295 33.6 4.09091Z" fill="	#d8e5ff"/>
</svg>
