<svg width="451" height="120" viewBox="0 0 451 120" fill="none" xmlns="http://www.w3.org/2000/svg">
<path d="M449.072 107.293H0.263916L13.1049 28.3795C23.6282 14.5424 23.315 14.8714 37.8473 24.8934C43.704 16.1557 51.2207 14.5752 60.3973 20.1518C78.644 13.6686 91.1717 19.114 97.9806 36.488C100.948 15.4559 113.475 6.35343 135.564 9.1805C150.388 -0.561167 162.916 1.62673 173.147 15.7442C185.086 12.7978 192.603 17.0096 195.697 28.3795C207.158 15.4351 219.686 14.4191 233.281 25.3318C242.704 10.4469 255.231 7.49061 270.864 16.4629C279.974 1.27782 292.501 -1.97768 308.447 6.69637C329.481 2.8673 342.009 10.9668 346.031 30.9949C355.188 15.8555 367.716 12.6457 383.614 21.3655C389.368 12.5304 396.885 10.8525 406.164 16.3317C416.961 2.75497 429.489 1.10784 443.747 11.3903C453.937 -2.76696 425.436 -3.00552 440.302 6.69639L449.072 107.293Z" fill="#182F5D"/>
<path d="M450.011 107.293H1.20349L4.96182 68.8233C7.80772 57.2188 5.30216 50.174 17.4896 52.8838C26.1526 46.8181 30.2241 33.2364 36.5945 41.483C50.7676 40.6619 58.2842 46.999 59.1445 60.4942C72.9981 49.8281 85.5259 51.0905 96.7278 64.2815C97.4628 41.1242 109.991 29.8964 134.311 30.5982C147.925 29.2463 155.441 35.0515 156.861 48.0139C168.694 44.9662 176.21 49.0756 179.411 60.3421C182.531 39.4552 195.058 30.4978 216.994 33.47C232.212 24.1001 244.739 26.6598 254.578 41.149C269.922 41.4453 277.439 48.8986 277.128 63.5091C275.363 47.5149 282.88 38.6768 299.678 36.9949C306.088 28.7841 313.605 27.7304 322.228 33.8338C335.789 32.4342 343.306 38.1907 344.778 51.1034C354.89 46.4175 362.406 48.8887 367.328 58.517C370.366 47.0954 377.882 42.83 389.878 45.7207C404.913 36.1798 417.441 38.5675 427.461 52.8838C436.132 46.826 440.204 60.5688 446.566 68.8233L450.011 107.293Z" fill="#25467D"/>
<path d="M440.928 107.293H-6L3.70903 119.52C15.9215 107.291 15.9215 59.8371 28.7646 71.4655C43.7144 61.8431 59.0609 52.2366 69.1667 66.4734C80.3456 53.2605 92.8734 51.9762 106.75 62.6204C127.08 58.1214 139.608 65.5509 144.333 84.909C153.37 79.1992 160.887 80.6465 166.883 89.251C174.323 72.4774 186.851 67.6334 204.467 74.719C214.341 69.8064 221.857 72.0519 227.017 81.4556C231.036 70.9684 238.553 67.6384 249.567 71.4655C258.495 56.1094 271.023 52.6819 287.15 61.183C292.804 52.2505 300.321 50.4762 309.7 55.8599C321.96 53.2197 329.477 57.7357 332.25 69.4078C340.902 63.3322 348.419 64.4137 354.8 72.6524C373.537 66.6364 386.065 72.549 392.383 90.3901C393.649 67.7378 406.176 57.013 429.967 58.2158C443.971 47.6928 443.434 111.82 457.215 112.959L440.928 107.293Z" fill="#356CB1"/>
<path d="M451.264 106.503H0.263916V110.904C6.61785 103.206 13.6647 102.517 21.4045 108.836C25.0454 89.0963 36.7902 81.0357 56.6389 84.6548C65.056 79.0091 72.1029 80.3709 77.7795 88.74C87.3809 84.2722 94.4278 86.8127 98.9202 96.3616C116.428 90.4123 128.173 96.1436 134.155 113.555C137.733 103.097 144.78 99.6478 155.295 103.206C164.3 88.8023 176.044 86.0778 190.53 95.0329C195.938 86.3952 202.985 84.7657 211.67 90.1446C223.797 88.1881 230.844 93.24 232.811 105.3C242.256 100.677 249.302 103.062 253.951 112.457C254.985 99.4687 262.032 93.4892 275.092 94.519C279.451 84.8397 286.498 82.1678 296.233 86.5032C304.413 80.622 311.46 81.7492 317.373 89.8847C330.132 79.2126 341.877 80.221 352.608 92.91C357.574 83.8323 364.621 81.7628 373.748 86.7018C384.258 83.1373 391.305 86.5821 394.889 97.0362C396.756 84.8786 403.803 79.7285 416.03 81.5857C429.403 71.5248 441.148 93.2049 451.264 106.503Z" fill="white"/>
</svg>
