<svg width="1440" height="360" viewBox="0 0 1440 360" fill="none" xmlns="http://www.w3.org/2000/svg">
<path d="M1433 360H0L41 95.38C74.6 48.98 73.6 50.0833 120 83.69C138.7 54.39 162.7 49.09 192 67.79C250.26 46.05 290.26 64.31 312 122.57C321.473 52.0434 361.473 21.52 432 31C479.333 -1.66667 519.333 5.66998 552 53.01C590.12 43.13 614.12 57.2533 624 95.38C660.593 51.9733 700.593 48.5667 744 85.16C774.087 35.2467 814.087 25.3333 864 55.42C893.087 4.49998 933.087 -6.41667 984 22.67C1051.16 9.83 1091.16 36.99 1104 104.15C1133.24 53.3833 1173.24 42.62 1224 71.86C1242.37 42.2333 1266.37 36.6066 1296 54.98C1330.47 9.45331 1370.47 3.92999 1416 38.41C1448.53 -9.06334 1357.53 -9.86329 1405 22.67L1433 360Z" fill="#182F5D"/>
<path d="M1436 360H3L15 231C24.0867 192.087 16.0867 168.463 55 177.55C82.66 157.21 95.66 111.667 116 139.32C161.253 136.567 185.253 157.817 188 203.07C232.233 167.303 272.233 171.537 308 215.77C310.347 138.117 350.347 100.467 428 102.82C471.467 98.2866 495.467 117.753 500 161.22C537.78 151 561.78 164.78 572 202.56C581.96 132.52 621.96 102.483 692 112.45C740.587 81.0299 780.587 89.6133 812 138.2C860.993 139.193 884.993 164.187 884 213.18C878.367 159.547 902.367 129.91 956 124.27C976.467 96.7366 1000.47 93.2033 1028 113.67C1071.3 108.977 1095.3 128.28 1100 171.58C1132.29 155.867 1156.29 164.153 1172 196.44C1181.7 158.14 1205.7 143.837 1244 153.53C1292.01 121.537 1332.01 129.543 1364 177.55C1391.69 157.237 1404.69 203.32 1425 231L1436 360Z" fill="#25467D"/>
<path d="M1407 360H-20L11 401C49.9933 359.994 49.9933 200.867 91 239.86C138.733 207.593 187.733 175.38 220 223.12C255.693 178.813 295.693 174.507 340 210.2C404.913 195.113 444.913 220.027 460 284.94C488.853 265.793 512.853 270.647 532 299.5C555.753 243.253 595.753 227.01 652 250.77C683.527 234.297 707.527 241.827 724 273.36C736.833 238.193 760.833 227.027 796 239.86C824.507 188.367 864.507 176.873 916 205.38C934.053 175.427 958.053 169.477 988 187.53C1027.15 178.677 1051.15 193.82 1060 232.96C1087.63 212.587 1111.63 216.213 1132 243.84C1191.83 223.667 1231.83 243.493 1252 303.32C1256.04 227.36 1296.04 191.397 1372 195.43C1416.71 160.143 1415 375.18 1459 379L1407 360Z" fill="#356CB1"/>
<path d="M1440 357.352H0V372.109C20.2875 346.297 42.7875 343.986 67.5 365.176C79.125 298.981 116.625 271.952 180 284.088C206.875 265.156 229.375 269.723 247.5 297.787C278.156 282.805 300.656 291.324 315 323.344C370.9 303.394 408.4 322.613 427.5 381C438.925 345.931 461.425 334.364 495 346.297C523.75 297.996 561.25 288.86 607.5 318.889C624.769 289.924 647.269 284.46 675 302.497C713.719 295.936 736.219 312.876 742.5 353.318C772.656 337.814 795.156 345.814 810 377.318C813.3 333.763 835.8 313.712 877.5 317.165C891.419 284.708 913.919 275.748 945 290.286C971.119 270.565 993.619 274.344 1012.5 301.625C1053.24 265.838 1090.74 269.22 1125 311.77C1140.86 281.33 1163.36 274.39 1192.5 290.952C1226.06 278.999 1248.56 290.55 1260 325.606C1265.96 284.838 1288.46 267.568 1327.5 273.796C1370.2 240.059 1407.7 312.759 1440 357.352Z" fill="white"/>
</svg>
